<?xml version="1.0" encoding="utf-8"?>
<!-- Generator: Adobe Illustrator 27.9.6, SVG Export Plug-In . SVG Version: 9.03 Build 54986)  -->
<svg version="1.1" id="Camada_1" xmlns="http://www.w3.org/2000/svg" xmlns:xlink="http://www.w3.org/1999/xlink" x="0px" y="0px"
	 viewBox="0 0 761.9 230.89" style="enable-background:new 0 0 761.9 230.89;" xml:space="preserve">
<style type="text/css">
	.st0{fill:#282B57;}
	.st1{fill:#00A7A7;}
	.st2{fill:#FBED5D;}
	.st3{fill:#E30613;}
	.st4{fill:#E84885;}
	.st5{fill:#BE1622;}
	.st6{fill:#D4EDFC;}
	.st7{fill:#95C11F;}
	.st8{fill:#C01662;}
	.st9{fill:#ACD6BE;}
	.st10{fill:#009982;}
	.st11{fill:#20345D;}
</style>
<g>
	<g>
		<g>
			<g>
				<g>
					<path class="st0" d="M301.72,101.03V23.16h28.03c6.23,0,11.4,1.06,15.52,3.17c4.12,2.11,7.16,4.95,9.12,8.51
						c1.96,3.56,2.95,7.64,2.95,12.24c0,4.3-0.96,8.23-2.89,11.79c-1.93,3.56-4.93,6.45-9.01,8.68c-4.08,2.23-9.31,3.34-15.69,3.34
						h-14.68v30.15H301.72z M315.07,59.98h14.02c5.19,0,8.94-1.17,11.24-3.5c2.3-2.34,3.45-5.51,3.45-9.51
						c0-4.08-1.15-7.25-3.45-9.51c-2.3-2.26-6.05-3.39-11.24-3.39h-14.02V59.98z"/>
					<path class="st0" d="M365.24,101.03V44.96h11.9l1.11,10.46c1.41-2.45,3.08-4.54,5.01-6.29c1.93-1.74,4.26-3.1,7.01-4.06
						c2.74-0.96,5.79-1.45,9.12-1.45v14.02h-4.78c-2.23,0-4.34,0.28-6.34,0.83c-2,0.56-3.73,1.47-5.17,2.73
						c-1.45,1.26-2.56,2.97-3.34,5.12c-0.78,2.15-1.17,4.78-1.17,7.9v26.81H365.24z"/>
					<path class="st0" d="M431.09,102.37c-5.56,0-10.46-1.22-14.68-3.67c-4.23-2.45-7.53-5.86-9.9-10.23
						c-2.37-4.38-3.56-9.42-3.56-15.13c0-5.86,1.17-11.01,3.5-15.46s5.64-7.94,9.9-10.46c4.26-2.52,9.21-3.78,14.85-3.78
						c5.49,0,10.25,1.22,14.29,3.67c4.04,2.45,7.19,5.71,9.46,9.79c2.26,4.08,3.39,8.72,3.39,13.91c0,0.74,0,1.54,0,2.39
						c0,0.85-0.07,1.8-0.22,2.84h-45.61v-8.57h32.37c-0.15-4-1.52-7.19-4.12-9.57c-2.6-2.37-5.82-3.56-9.68-3.56
						c-2.74,0-5.27,0.63-7.56,1.89c-2.3,1.26-4.12,3.13-5.45,5.62c-1.33,2.49-2,5.62-2,9.4v3.23c0,3.49,0.65,6.47,1.95,8.96
						c1.3,2.49,3.06,4.39,5.28,5.73c2.23,1.33,4.78,2,7.68,2c3.12,0,5.69-0.67,7.73-2c2.04-1.33,3.5-3.08,4.39-5.23h13.57
						c-0.89,3.41-2.54,6.51-4.95,9.29c-2.41,2.78-5.36,4.97-8.84,6.56C439.4,101.57,435.47,102.37,431.09,102.37z"/>
					<path class="st0" d="M467.36,101.03V44.96h11.79l0.89,7.56c1.78-2.74,4.17-4.91,7.17-6.51c3-1.59,6.32-2.39,9.96-2.39
						c2.89,0,5.47,0.37,7.73,1.11c2.26,0.74,4.26,1.85,6.01,3.34c1.74,1.48,3.17,3.34,4.28,5.56c2-3.11,4.67-5.56,8.01-7.34
						c3.34-1.78,7.01-2.67,11.01-2.67c4.67,0,8.64,0.95,11.9,2.84c3.26,1.89,5.73,4.67,7.4,8.34c1.67,3.67,2.5,8.18,2.5,13.52v32.71
						h-13.24V69.55c0-4.75-0.96-8.38-2.89-10.9c-1.93-2.52-4.75-3.78-8.46-3.78c-2.6,0-4.86,0.65-6.79,1.95
						c-1.93,1.3-3.45,3.15-4.56,5.56c-1.11,2.41-1.67,5.36-1.67,8.84v29.81h-13.35V69.55c0-4.75-0.96-8.38-2.89-10.9
						c-1.93-2.52-4.86-3.78-8.79-3.78c-2.45,0-4.64,0.65-6.56,1.95c-1.93,1.3-3.43,3.15-4.5,5.56c-1.08,2.41-1.61,5.36-1.61,8.84
						v29.81H467.36z"/>
					<path class="st0" d="M574.15,36.06c-2.45,0-4.47-0.76-6.06-2.28c-1.6-1.52-2.39-3.39-2.39-5.62c0-2.3,0.8-4.17,2.39-5.62
						c1.59-1.45,3.62-2.17,6.06-2.17s4.47,0.72,6.06,2.17c1.59,1.45,2.39,3.32,2.39,5.62c0,2.23-0.8,4.1-2.39,5.62
						C578.62,35.3,576.6,36.06,574.15,36.06z M567.48,101.03V44.96h13.35v56.07H567.48z"/>
					<path class="st0" d="M613.76,102.37c-4.45,0-8.29-0.91-11.51-2.73c-3.23-1.82-5.69-4.56-7.4-8.23
						c-1.71-3.67-2.56-8.18-2.56-13.52V44.96h13.35v31.48c0,4.82,1.02,8.47,3.06,10.96c2.04,2.49,5.13,3.73,9.29,3.73
						c2.6,0,4.95-0.65,7.06-1.95c2.11-1.3,3.78-3.11,5.01-5.45c1.22-2.34,1.84-5.25,1.84-8.73V44.96h13.35v56.07h-11.79l-1-9.34
						c-1.63,3.26-4.06,5.86-7.29,7.79C621.93,101.4,618.13,102.37,613.76,102.37z"/>
					<path class="st0" d="M656.92,101.03V44.96h11.79l0.89,7.56c1.78-2.74,4.17-4.91,7.17-6.51c3-1.59,6.32-2.39,9.96-2.39
						c2.89,0,5.47,0.37,7.73,1.11c2.26,0.74,4.26,1.85,6.01,3.34c1.74,1.48,3.17,3.34,4.28,5.56c2-3.11,4.67-5.56,8.01-7.34
						c3.34-1.78,7.01-2.67,11.01-2.67c4.67,0,8.64,0.95,11.9,2.84c3.26,1.89,5.73,4.67,7.4,8.34c1.67,3.67,2.5,8.18,2.5,13.52v32.71
						h-13.24V69.55c0-4.75-0.96-8.38-2.89-10.9c-1.93-2.52-4.75-3.78-8.46-3.78c-2.6,0-4.86,0.65-6.79,1.95
						c-1.93,1.3-3.45,3.15-4.56,5.56c-1.11,2.41-1.67,5.36-1.67,8.84v29.81h-13.35V69.55c0-4.75-0.96-8.38-2.89-10.9
						c-1.93-2.52-4.86-3.78-8.79-3.78c-2.45,0-4.64,0.65-6.56,1.95c-1.93,1.3-3.43,3.15-4.5,5.56c-1.08,2.41-1.61,5.36-1.61,8.84
						v29.81H656.92z"/>
				</g>
			</g>
			<g>
				<g>
					<path class="st0" d="M335.65,208.4c-7.34,0-13.76-1.67-19.25-5.01c-5.49-3.34-9.75-7.99-12.79-13.96
						c-3.04-5.97-4.56-12.96-4.56-20.97c0-7.93,1.56-14.96,4.67-21.08c3.11-6.12,7.58-10.9,13.4-14.35
						c5.82-3.45,12.7-5.17,20.64-5.17c9.05,0,16.58,2.17,22.58,6.51c6.01,4.34,9.86,10.36,11.57,18.08h-15.02
						c-1.11-3.86-3.28-6.86-6.51-9.01c-3.23-2.15-7.44-3.23-12.63-3.23c-5.27,0-9.79,1.13-13.57,3.39
						c-3.78,2.26-6.66,5.53-8.62,9.79c-1.97,4.27-2.95,9.33-2.95,15.18c0,5.86,1,10.9,3,15.13s4.82,7.44,8.45,9.62
						c3.63,2.19,7.9,3.28,12.79,3.28c7.27,0,12.75-2.04,16.46-6.12c3.71-4.08,5.9-9.38,6.56-15.91h-20.14v-10.12h33.6v42.61h-12.35
						l-1-10.68c-1.71,2.52-3.67,4.69-5.9,6.51c-2.23,1.82-4.84,3.19-7.84,4.12C343.27,207.94,339.72,208.4,335.65,208.4z"/>
					<path class="st0" d="M383.93,207.07V151h11.9l1.11,10.46c1.41-2.45,3.08-4.54,5.01-6.29c1.93-1.74,4.26-3.1,7.01-4.06
						c2.74-0.96,5.79-1.45,9.12-1.45v14.02h-4.78c-2.23,0-4.34,0.28-6.34,0.83c-2,0.56-3.73,1.47-5.17,2.73
						c-1.45,1.26-2.56,2.97-3.34,5.12c-0.78,2.15-1.17,4.78-1.17,7.9v26.81H383.93z"/>
					<path class="st0" d="M443.44,208.4c-4.52,0-8.33-0.78-11.4-2.34c-3.08-1.56-5.36-3.63-6.84-6.23c-1.48-2.6-2.22-5.45-2.22-8.57
						c0-3.49,0.91-6.53,2.73-9.12c1.82-2.59,4.5-4.62,8.06-6.06c3.56-1.45,7.97-2.17,13.24-2.17h14.13c0-2.96-0.43-5.43-1.28-7.4
						c-0.85-1.96-2.13-3.45-3.84-4.45c-1.71-1-3.93-1.5-6.67-1.5c-3.04,0-5.64,0.71-7.79,2.11c-2.15,1.41-3.49,3.52-4,6.34h-13.13
						c0.44-4,1.8-7.45,4.06-10.35c2.26-2.89,5.23-5.12,8.9-6.67c3.67-1.56,7.66-2.34,11.96-2.34c5.34,0,9.88,0.91,13.63,2.73
						c3.74,1.82,6.6,4.39,8.57,7.73c1.96,3.34,2.95,7.42,2.95,12.24v34.71h-11.46l-1.33-8.9c-0.74,1.48-1.69,2.84-2.84,4.06
						c-1.15,1.22-2.49,2.3-4,3.23c-1.52,0.93-3.21,1.65-5.06,2.17C447.93,208.14,445.81,208.4,443.44,208.4z M437.32,146.22
						l-1.22-8.9l23.81-14.13l1.56,10.57L437.32,146.22z M446.45,197.84c2.15,0,4.08-0.39,5.78-1.17c1.71-0.78,3.15-1.89,4.34-3.34
						c1.19-1.45,2.13-3.08,2.84-4.89c0.7-1.82,1.13-3.73,1.28-5.73v-0.22h-12.24c-2.67,0-4.84,0.33-6.51,1
						c-1.67,0.67-2.91,1.58-3.73,2.73c-0.82,1.15-1.22,2.5-1.22,4.06c0,1.63,0.39,3,1.17,4.12s1.89,1.97,3.34,2.56
						C442.94,197.54,444.59,197.84,446.45,197.84z"/>
					<path class="st0" d="M488.05,207.07v-44.94h-8.01V151h8.01v-6.12c0-4.3,0.72-7.77,2.17-10.4c1.45-2.63,3.54-4.54,6.29-5.73
						c2.74-1.19,6.01-1.78,9.79-1.78h6.01v11.35h-4c-2.45,0-4.21,0.5-5.28,1.5c-1.08,1-1.61,2.73-1.61,5.17V151h34.71v56.07h-13.35
						v-44.94H501.4v44.94H488.05z M529.43,142.44c-2.38,0-4.36-0.74-5.95-2.22c-1.6-1.48-2.39-3.37-2.39-5.67
						c0-2.22,0.8-4.06,2.39-5.51c1.59-1.45,3.58-2.17,5.95-2.17c2.52,0,4.58,0.72,6.17,2.17c1.59,1.45,2.39,3.28,2.39,5.51
						c0,2.3-0.8,4.19-2.39,5.67C534.01,141.7,531.95,142.44,529.43,142.44z"/>
					<path class="st0" d="M574.93,208.4c-5.56,0-10.5-1.24-14.8-3.73c-4.3-2.48-7.66-5.93-10.07-10.35
						c-2.41-4.41-3.62-9.44-3.62-15.07c0-5.86,1.2-11.01,3.62-15.46c2.41-4.45,5.77-7.92,10.07-10.4c4.3-2.48,9.23-3.73,14.8-3.73
						c7.04,0,12.96,1.83,17.74,5.51c4.78,3.67,7.8,8.7,9.07,15.07h-14.02c-0.74-2.89-2.28-5.13-4.62-6.73
						c-2.34-1.59-5.1-2.39-8.29-2.39c-2.74,0-5.25,0.69-7.51,2.06c-2.26,1.37-4.04,3.39-5.34,6.06c-1.3,2.67-1.95,5.93-1.95,9.79
						c0,2.82,0.37,5.36,1.11,7.62c0.74,2.26,1.8,4.15,3.17,5.67c1.37,1.52,2.95,2.69,4.73,3.5c1.78,0.82,3.71,1.22,5.78,1.22
						c2.08,0,4-0.37,5.79-1.11c1.78-0.74,3.3-1.8,4.56-3.17c1.26-1.37,2.11-3.02,2.56-4.95h14.02c-1.33,6.23-4.39,11.22-9.18,14.96
						C587.78,206.53,581.9,208.4,574.93,208.4z"/>
					<path class="st0" d="M630,208.4c-4.52,0-8.33-0.78-11.4-2.34c-3.08-1.56-5.36-3.63-6.84-6.23c-1.48-2.6-2.22-5.45-2.22-8.57
						c0-3.49,0.91-6.53,2.73-9.12c1.82-2.59,4.5-4.62,8.06-6.06c3.56-1.45,7.97-2.17,13.24-2.17h14.13c0-2.96-0.43-5.43-1.28-7.4
						c-0.85-1.96-2.13-3.45-3.84-4.45c-1.71-1-3.93-1.5-6.67-1.5c-3.04,0-5.64,0.71-7.79,2.11c-2.15,1.41-3.49,3.52-4,6.34h-13.13
						c0.44-4,1.8-7.45,4.06-10.35c2.26-2.89,5.23-5.12,8.9-6.67c3.67-1.56,7.66-2.34,11.96-2.34c5.34,0,9.88,0.91,13.63,2.73
						c3.74,1.82,6.6,4.39,8.57,7.73c1.96,3.34,2.95,7.42,2.95,12.24v34.71h-11.46l-1.33-8.9c-0.74,1.48-1.69,2.84-2.84,4.06
						c-1.15,1.22-2.49,2.3-4,3.23c-1.52,0.93-3.21,1.65-5.06,2.17C634.48,208.14,632.37,208.4,630,208.4z M633,197.84
						c2.15,0,4.08-0.39,5.78-1.17c1.71-0.78,3.15-1.89,4.34-3.34c1.19-1.45,2.13-3.08,2.84-4.89c0.7-1.82,1.13-3.73,1.28-5.73v-0.22
						H635c-2.67,0-4.84,0.33-6.51,1c-1.67,0.67-2.91,1.58-3.73,2.73c-0.82,1.15-1.22,2.5-1.22,4.06c0,1.63,0.39,3,1.17,4.12
						s1.89,1.97,3.34,2.56C629.5,197.54,631.15,197.84,633,197.84z"/>
				</g>
			</g>
		</g>
	</g>
	<g>
		<path class="st1" d="M202.53,53.77c1.97,1.26,3.93,2.58,5.86,3.95c-3.47-8.75-8.31-17.42-14.34-25.13
			c-7.19-3.16-14.75-5.8-22.52-7.87C181.67,31.34,192.42,41.38,202.53,53.77z"/>
		<path class="st2" d="M49.41,189.65c-9.91-13.68-18.16-32.75-19.36-58.71c-3.75-6.88-6.93-13.74-9.44-20.37
			c-2.95,9.02-4.47,17.86-4.28,26.06C16.86,159.76,30.7,177.01,49.41,189.65z"/>
		<path class="st3" d="M227.38,171.49c1.79-2.48,3.44-4.98,4.95-7.49c-20.55,15.83-47.74,27.02-71.55,33.34
			c-15.66,8.25-31.23,11.54-42.47,11.54l-0.94-0.01c-25.56-0.39-59.8-32.99-81.58-68.1c3.08,24.51,13.08,42.96,26.11,56.31
			c28.87,15.17,63.93,21.63,81.44,22.87c2.52,0.18,5.16,0.27,7.86,0.27c3.19,0,6.37-0.16,9.54-0.4
			C186.69,211.01,211.54,193.4,227.38,171.49z"/>
		<path class="st4" d="M76.41,209.2c19.12,12.93,41.08,17.74,57.25,16.43c2.47-0.2,4.95-0.53,7.44-0.92
			C124.67,223.33,99.83,218.55,76.41,209.2z"/>
		<path class="st5" d="M175.86,187.68c22.43-7.66,45.76-19.3,62.1-34.82c0.38-0.88,0.78-1.76,1.12-2.64
			c-0.89-19.15-7.72-40.91-19.56-62.44c0.76,36.01-10.03,66.73-31.39,88.98C184.2,180.85,180.08,184.46,175.86,187.68z"/>
		<path class="st6" d="M255.88,88.3c-6.57-18.37-26.75-37.96-52.91-51.46c5.47,8.37,9.7,17.41,12.52,26.31
			c14.71,11.98,27.06,27.55,31.88,47.62c2.49,10.38,2.13,21.42-0.84,32.56c0.93-1.19,1.93-2.34,2.78-3.57
			C260.22,123.9,262.43,106.59,255.88,88.3z"/>
		<path class="st2" d="M238.65,162.68c-2.14,3.94-4.49,7.85-7.28,11.71c-12.67,17.52-30.92,32.38-50.96,42.47
			c9.98-2.32,19.32-5.77,27.28-10.23C225.93,196.44,236.49,181.27,238.65,162.68z"/>
		<path class="st5" d="M34.81,126.53c0.01,0.96,0.08,1.88,0.11,2.82c7.16,12.96,16.33,26.16,26.71,37.97
			c20.26,23.04,40.6,36.38,55.81,36.62l0.87,0c2.91,0,6.14-0.25,9.59-0.76c-1.43,0.1-2.89,0.21-4.19,0.24l-1.13,0.01
			c-43.76,0-61.84-53.58-66.34-70c-7.36-26.89-12.81-54.61,0.64-78.29c-1.33,1.26-2.65,2.54-3.94,3.87
			c-4.64,4.75-8.89,9.75-12.76,14.89C36.35,88.61,34.51,106.26,34.81,126.53z"/>
		<path class="st7" d="M32.84,84.66c-3.77,6.1-6.98,12.31-9.52,18.5c1.67,5.23,3.87,10.7,6.54,16.34C30,106.8,31,95.17,32.84,84.66z
			"/>
		<path class="st8" d="M242.57,111.92c-3.93-16.37-13.28-29.61-24.83-40.29c0.36,1.66,0.66,3.3,0.91,4.93
			c12.63,20.55,20.94,41.73,24.07,61.15C244.5,128.86,244.55,120.15,242.57,111.92z"/>
		<path class="st9" d="M139.71,5.2C93.35,8.67,49.48,28.82,30.54,55.33c-9.14,12.78-12.19,26.33-9.27,40.3
			c3.81-8.11,8.68-16.17,14.4-23.91c4.25-15.8,10.77-28.35,19.47-37.17c9.3-9.43,20.68-14.21,33.83-14.21
			c3.38,0,7.27,0.19,11.49,0.56c11.05-3.92,23.09-6,35.84-6c0.68,0,1.37,0.07,2.05,0.08c0.72,0.01,1.44,0.05,2.16,0.08
			c15.23,0.5,30.98,3.68,46.28,9.33C175.26,12.9,160.62,5.05,143.82,5.05C142.46,5.05,141.08,5.1,139.71,5.2z"/>
		<path class="st8" d="M90.11,25.29c-0.37,0-0.77-0.02-1.13-0.02c-11.79,0-21.99,4.29-30.33,12.75C52.85,43.9,48.09,51.63,44.37,61
			c1.63-1.84,3.31-3.66,5.04-5.43c8.31-8.5,17.32-15.73,26.74-21.69C80.52,30.6,85.18,27.74,90.11,25.29z"/>
		<path class="st10" d="M189.29,46.18c-13.43-14.03-27.14-23.28-38.1-25.13c-2.41-0.4-4.84-0.71-7.28-0.91
			c-2.5-0.15-5-0.3-7.51-0.31c-0.47,0-0.95,0.04-1.42,0.04c-1.42,0.02-2.82,0.09-4.22,0.15c-5.48,0.36-10.99,1.22-16.5,2.55
			c18.42,2.82,40.61,8.38,61.09,17.04C179.85,41.53,184.55,43.73,189.29,46.18z"/>
		<path class="st11" d="M214.52,84.63c-0.08-2.05-0.28-4.16-0.57-6.31c-1.59-2.56-3.22-5.11-4.95-7.65
			c-3.15-4.63-6.43-9.01-9.77-13.15c-8.64-5.45-17.55-9.87-25.81-13.36c-24.31-10.28-51.04-16.11-70.63-18.1
			c-7.93,2.88-15.75,6.74-23.32,11.49c-0.71,0.53-1.45,1-2.15,1.55c-31.69,25.13-25.45,59.74-16.33,93.03
			c4.29,15.66,21.32,66.38,61.53,66.38c0.36,0,0.71,0,1.08-0.01c9.15-0.2,21.6-2.15,35.21-5.69c8.84-4.7,17.71-11.08,25.77-19.47
			C205.64,151.4,216,120.72,214.52,84.63z M159.46,165.88l-4.4,7.58c-1.42,2.46-4.91,4.47-7.75,4.47h-8.65c-2.84,0-7.49,0-10.33,0
			h-8.66c-2.84,0-6.33-2.01-7.75-4.47l-4.39-7.58c-1.42-2.46-0.43-5.33,2.2-6.38l18.97-7.58c2.64-1.05,6.95-1.05,9.59,0l18.97,7.58
			C159.89,160.55,160.88,163.42,159.46,165.88z M198.77,104.6l-31.46,48.41c-1.55,2.38-4.96,3.45-7.59,2.38l-19.38-7.91
			c-2.63-1.07-4.78-4.15-4.78-6.84c0-2.69,2.05-5.99,4.55-7.33l11.07-5.92c2.5-1.34,4.55-4.76,4.55-7.6V98.91
			c0-2.84,2.32-5.16,5.16-5.16h9.03c2.84,0,5.87-2.21,6.74-4.92l1.74-5.45c0.86-2.71-0.66-4.27-3.38-3.48l-18.82,5.47
			c-2.73,0.79-4.96,3.77-4.96,6.61v21.06c0,2.84-2.32,5.16-5.16,5.16h-7.43c-2.84,0-7.49,0-10.33,0h-7.44
			c-2.84,0-5.16-2.32-5.16-5.16V91.98c0-2.84-2.23-5.81-4.96-6.61L91.95,79.9c-2.73-0.79-4.25,0.77-3.39,3.48l1.74,5.45
			c0.86,2.71,3.9,4.92,6.74,4.92h9.04c2.84,0,5.16,2.32,5.16,5.16v20.86c0,2.84,2.05,6.26,4.55,7.6l11.07,5.93
			c2.5,1.34,4.55,4.64,4.55,7.33c0,2.69-2.15,5.77-4.78,6.84l-19.38,7.91c-2.63,1.07-6.05,0-7.59-2.38L68.2,104.6
			c-1.55-2.38-1.56-6.29-0.04-8.68l25.42-39.8c1.53-2.39,5.1-4.35,7.94-4.35h12.51c2.84,0,6.88,1.57,8.98,3.48l6.66,6.08
			c2.1,1.91,5.53,1.91,7.63,0l6.67-6.08c2.1-1.91,6.14-3.48,8.98-3.48h12.49c2.84,0,6.41,1.96,7.94,4.35l25.42,39.8
			C200.34,98.31,200.32,102.22,198.77,104.6z"/>
	</g>
</g>
</svg>
